<svg xmlns="http://www.w3.org/2000/svg" width="512" height="512" version="1.1">
  <path d="M 247.5641117095946, 259.979780197142 Q 244.3527141647818, 265.535422283704, 230.9733122180822, 268.38081982483 " fill="none" id="curve_164" stroke="#000000" stroke-linecap="round" stroke-linejoin="round" stroke-width="4.377941735876985"/>
  <path d="M 242.383134657215, 242.036249598108 Q 247.3911965583286, 239.680794715997, 257.8756263035542, 237.722278204364 " fill="none" id="curve_164" stroke="#000000" stroke-linecap="round" stroke-linejoin="round" stroke-width="3.493220998129111"/>
  <path d="M 257.8756263035542, 237.722278204364 Q 264.4086095318566, 238.736714618084, 281.959377199369, 239.878588799612 " fill="none" id="curve_164" stroke="#000000" stroke-linecap="round" stroke-linejoin="round" stroke-width="3.1565829292929095"/>
  <path d="M 269.544208155808, 266.415789152946 Q 270.4562140680254, 291.9528358970214, 288.7742411253534, 295.260724745584 " fill="none" id="curve_164" stroke="#000000" stroke-linecap="round" stroke-linejoin="round" stroke-width="4.312783635345825"/>
  <path d="M 288.7742411253534, 295.260724745584 Q 302.4147707985926, 295.405107873339, 303.0312774962186, 305.65060392881 " fill="none" id="curve_164" stroke="#000000" stroke-linecap="round" stroke-linejoin="round" stroke-width="5.392045779863485"/>
  <path d="M 328.9030358906586, 291.928073922046 Q 325.532492399554, 305.201127838984, 315.3383323148064, 332.11969148704 " fill="none" id="curve_164" stroke="#000000" stroke-linecap="round" stroke-linejoin="round" stroke-width="6.606615117232612"/>
  <path d="M 315.3383323148064, 332.11969148704 Q 311.0200759480086, 345.7992927407118, 301.345951954047, 376.2898838288 " fill="none" id="curve_164" stroke="#000000" stroke-linecap="round" stroke-linejoin="round" stroke-width="6.920610760536428"/>
  <path d="M 301.345951954047, 376.2898838288 Q 294.0899832451658, 388.4620035477034, 288.3903405105622, 424.4038361113 " fill="none" id="curve_164" stroke="#000000" stroke-linecap="round" stroke-linejoin="round" stroke-width="7.461323396706392"/>
  <path d="M 288.3903405105622, 424.4038361113 Q 286.8800691338246, 454.7710760335616, 271.377565238264, 462.783053772292 " fill="none" id="curve_164" stroke="#000000" stroke-linecap="round" stroke-linejoin="round" stroke-width="3.7559497324708757"/>
  <path d="M 271.377565238264, 462.783053772292 Q 256.1620192542232, 469.9768479991534, 237.3292773916972, 484.759465789158 " fill="none" id="curve_164" stroke="#000000" stroke-linecap="round" stroke-linejoin="round" stroke-width="4.034216279160933"/>
  <path d="M 237.3292773916972, 484.759465789158 Q 252.960697902559, 495.1065847348012, 266.31284746748, 510.752362720176 " fill="none" id="curve_164" stroke="#000000" stroke-linecap="round" stroke-linejoin="round" stroke-width="3.32674314228365"/>
  <path d="M 280.8364571198356, 508.023370174746 Q 280.9556642118194, 500.306587141274, 281.0579897742338, 463.127599551338 " fill="none" id="curve_164" stroke="#000000" stroke-linecap="round" stroke-linejoin="round" stroke-width="3.346919713493002"/>
  <path d="M 291.7805556496754, 439.63290769762 Q 291.7743785533568, 442.738864564233, 291.7687378097402, 477.35463585694 " fill="none" id="curve_164" stroke="#000000" stroke-linecap="round" stroke-linejoin="round" stroke-width="3.8881453648273023"/>
  <path d="M 291.7687378097402, 477.35463585694 Q 291.896231422944, 483.1064311173534, 292.3659559656012, 485.5323416217 " fill="none" id="curve_164" stroke="#000000" stroke-linecap="round" stroke-linejoin="round" stroke-width="3.716003463928958"/>
  <path d="M 292.3659559656012, 485.5323416217 Q 295.398949118312, 476.5881990240708, 301.8826435397758, 458.818827005762 " fill="none" id="curve_164" stroke="#000000" stroke-linecap="round" stroke-linejoin="round" stroke-width="3.6470001308970614"/>
  <path d="M 301.8826435397758, 458.818827005762 Q 305.67628536114, 449.659980960365, 312.700761671278, 429.648050528704 " fill="none" id="curve_164" stroke="#000000" stroke-linecap="round" stroke-linejoin="round" stroke-width="4.240662154196552"/>
  <path d="M 312.700761671278, 429.648050528704 Q 316.157172977438, 421.20262393138, 323.02133872777, 397.660394408436 " fill="none" id="curve_164" stroke="#000000" stroke-linecap="round" stroke-linejoin="round" stroke-width="3.93587631429876"/>
  <path d="M 323.02133872777, 397.660394408436 Q 325.8298161738904, 389.0446694434284, 331.832960346298, 364.8441236709 " fill="none" id="curve_164" stroke="#000000" stroke-linecap="round" stroke-linejoin="round" stroke-width="3.962217663546465"/>
  <path d="M 331.832960346298, 364.8441236709 Q 333.9179725182258, 355.707496877422, 339.039605649142, 331.449904965416 " fill="none" id="curve_164" stroke="#000000" stroke-linecap="round" stroke-linejoin="round" stroke-width="4.117960032847183"/>
  <path d="M 339.039605649142, 331.449904965416 Q 340.35737807098, 320.8456627066924, 344.023271311042, 298.07190816476 " fill="none" id="curve_164" stroke="#000000" stroke-linecap="round" stroke-linejoin="round" stroke-width="4.3975622592838945"/>
  <path d="M 344.023271311042, 298.07190816476 Q 344.11000626504, 269.3296483066676, 347.06323044457, 262.973420615642 " fill="none" id="curve_164" stroke="#000000" stroke-linecap="round" stroke-linejoin="round" stroke-width="4.095606766166076"/>
  <path d="M 347.06323044457, 262.973420615642 Q 347.398909741436, 241.663742083163, 350.2535471954952, 226.87257779161 " fill="none" id="curve_164" stroke="#000000" stroke-linecap="round" stroke-linejoin="round" stroke-width="5.3503125464471815"/>
  <path d="M 344.74770578374, 232.9317216376 Q 349.2234693312258, 225.622477366747, 351.9534949733834, 198.788934717122 " fill="none" id="curve_164" stroke="#000000" stroke-linecap="round" stroke-linejoin="round" stroke-width="4.702435204091685"/>
  <path d="M 351.9534949733834, 198.788934717122 Q 352.4234366444568, 181.582407182398, 353.269893497886, 149.892823451638 " fill="none" id="curve_164" stroke="#000000" stroke-linecap="round" stroke-linejoin="round" stroke-width="5.6022885164488185"/>
  <path d="M 353.269893497886, 149.892823451638 Q 351.929221164976, 128.249129332656, 342.6370737427126, 119.239183765702 " fill="none" id="curve_164" stroke="#000000" stroke-linecap="round" stroke-linejoin="round" stroke-width="6.7997914533086545"/>
  <path d="M 342.6370737427126, 119.239183765702 Q 333.6011387798926, 108.4584096728912, 303.258893545042, 95.343386510982 " fill="none" id="curve_164" stroke="#000000" stroke-linecap="round" stroke-linejoin="round" stroke-width="3.9600910490033416"/>
  <path d="M 303.258893545042, 95.343386510982 Q 294.0327632152636, 91.2910415652246, 279.3938258427628, 84.691552556801 " fill="none" id="curve_164" stroke="#000000" stroke-linecap="round" stroke-linejoin="round" stroke-width="5.323223822603834"/>
  <path d="M 279.3938258427628, 84.691552556801 Q 251.9113765739296, 85.0985079098144, 241.3988561748382, 87.448077699176 " fill="none" id="curve_164" stroke="#000000" stroke-linecap="round" stroke-linejoin="round" stroke-width="3.352555648966061"/>
  <path d="M 241.3988561748382, 87.448077699176 Q 219.6995955000376, 90.65622583778192, 209.6721512742372, 114.195117786588 " fill="none" id="curve_164" stroke="#000000" stroke-linecap="round" stroke-linejoin="round" stroke-width="3.2157089413504294"/>
  <path d="M 209.6721512742372, 114.195117786588 Q 202.7037033275096, 122.4075990802458, 188.883146668106, 159.943563494784 " fill="none" id="curve_164" stroke="#000000" stroke-linecap="round" stroke-linejoin="round" stroke-width="4.049566546860214"/>
  <path d="M 188.883146668106, 159.943563494784 Q 183.3969488485794, 170.819212692055, 169.5879334674476, 202.208254335062 " fill="none" id="curve_164" stroke="#000000" stroke-linecap="round" stroke-linejoin="round" stroke-width="4.112279245932405"/>
  <path d="M 169.5879334674476, 202.208254335062 Q 158.571921148838, 208.4669698397806, 148.0790836797854, 238.104346078442 " fill="none" id="curve_164" stroke="#000000" stroke-linecap="round" stroke-linejoin="round" stroke-width="3.5319148229818156"/>
  <path d="M 148.0790836797854, 238.104346078442 Q 140.9749999262208, 251.2388976738302, 131.145408819954, 276.119228174292 " fill="none" id="curve_164" stroke="#000000" stroke-linecap="round" stroke-linejoin="round" stroke-width="3.7590080567593716"/>
  <path d="M 131.145408819954, 276.119228174292 Q 123.6928221708124, 289.996135192188, 110.8741377648688, 323.5498168126 " fill="none" id="curve_164" stroke="#000000" stroke-linecap="round" stroke-linejoin="round" stroke-width="4.231587725006701"/>
  <path d="M 110.8741377648688, 323.5498168126 Q 102.7443133462482, 334.9151376503284, 87.5933987266912, 374.095408445486 " fill="none" id="curve_164" stroke="#000000" stroke-linecap="round" stroke-linejoin="round" stroke-width="4.033625289142277"/>
  <path d="M 87.5933987266912, 374.095408445486 Q 80.283562846643, 384.5201687956452, 65.6944313793168, 428.040079860188 " fill="none" id="curve_164" stroke="#000000" stroke-linecap="round" stroke-linejoin="round" stroke-width="4.051143450164961"/>
  <path d="M 65.6944313793168, 428.040079860188 Q 57.7498944900972, 438.9911490829984, 46.463682976714, 482.589501874912 " fill="none" id="curve_164" stroke="#000000" stroke-linecap="round" stroke-linejoin="round" stroke-width="3.9589653086509573"/>
  <path d="M 46.463682976714, 482.589501874912 Q 42.32885768495138, 484.913544625158, 41.56921561495986, 502.098773659788 " fill="none" id="curve_164" stroke="#000000" stroke-linecap="round" stroke-linejoin="round" stroke-width="5.3180136065797745"/>
  <path d="M 70.9578362125928, 507.876222176378 Q 66.3964184953452, 500.269357081634, 64.02878894089191, 451.273028139364 " fill="none" id="curve_164" stroke="#000000" stroke-linecap="round" stroke-linejoin="round" stroke-width="6.922379095450395"/>
  <path d="M 92.12079226982114, 374.869022283408 Q 91.1473683028248, 375.637618390476, 90.9663943897606, 404.58629862396 " fill="none" id="curve_164" stroke="#000000" stroke-linecap="round" stroke-linejoin="round" stroke-width="2.861798826283785"/>
  <path d="M 90.9663943897606, 404.58629862396 Q 91.2295790997334, 420.2237864569168, 93.7098655353904, 434.572922388002 " fill="none" id="curve_164" stroke="#000000" stroke-linecap="round" stroke-linejoin="round" stroke-width="3.4145616623292487"/>
  <path d="M 93.7098655353904, 434.572922388002 Q 95.1545565919535, 444.322907423238, 99.3971329529226, 464.898553192402 " fill="none" id="curve_164" stroke="#000000" stroke-linecap="round" stroke-linejoin="round" stroke-width="3.0396478874740547"/>
  <path d="M 99.3971329529226, 464.898553192402 Q 102.8793088198076, 476.39429209593, 110.8342443277892, 497.235229372704 " fill="none" id="curve_164" stroke="#000000" stroke-linecap="round" stroke-linejoin="round" stroke-width="4.080455147274636"/>
  <path d="M 110.8342443277892, 497.235229372704 Q 111.5953539011244, 508.0662816124694, 122.627174887689, 509.2855969009 " fill="none" id="curve_164" stroke="#000000" stroke-linecap="round" stroke-linejoin="round" stroke-width="2.461493761140886"/>
  <path d="M 141.8478501466854, 509.156294282418 Q 137.679552826781, 502.3341653834408, 130.0522225938682, 474.42238053444 " fill="none" id="curve_164" stroke="#000000" stroke-linecap="round" stroke-linejoin="round" stroke-width="3.6611679136836006"/>
  <path d="M 130.0522225938682, 474.42238053444 Q 128.0102882855494, 469.8618125595598, 125.8564343870976, 444.376725560704 " fill="none" id="curve_164" stroke="#000000" stroke-linecap="round" stroke-linejoin="round" stroke-width="4.68947219174123"/>
  <path d="M 125.8564343870976, 444.376725560704 Q 125.2945815276126, 442.4009681868226, 125.10198439626618, 416.69902669654 " fill="none" id="curve_164" stroke="#000000" stroke-linecap="round" stroke-linejoin="round" stroke-width="3.7062962949926033"/>
  <path d="M 125.10198439626618, 416.69902669654 Q 125.168254791942, 397.6643315776442, 125.69391158288038, 384.551360722266 " fill="none" id="curve_164" stroke="#000000" stroke-linecap="round" stroke-linejoin="round" stroke-width="3.6631663537039074"/>
  <path d="M 125.69391158288038, 384.551360722266 Q 127.30467754413, 377.435198005283, 128.774101387378, 357.99758822957 " fill="none" id="curve_164" stroke="#000000" stroke-linecap="round" stroke-linejoin="round" stroke-width="4.752437710982687"/>
  <path d="M 128.774101387378, 357.99758822957 Q 132.2060619480636, 348.8018525976354, 138.0843386888224, 315.9178572124 " fill="none" id="curve_164" stroke="#000000" stroke-linecap="round" stroke-linejoin="round" stroke-width="6.080024082536327"/>
  <path d="M 138.0843386888224, 315.9178572124 Q 141.1141190269796, 306.023542088794, 144.0458283136892, 282.317137828882 " fill="none" id="curve_164" stroke="#000000" stroke-linecap="round" stroke-linejoin="round" stroke-width="8.277120440291284"/>
  <path d="M 144.0458283136892, 282.317137828882 Q 149.3065561582722, 281.7122705682, 149.631482429338, 256.17913143194 " fill="none" id="curve_164" stroke="#000000" stroke-linecap="round" stroke-linejoin="round" stroke-width="7.935143740815382"/>
  <path d="M 149.631482429338, 256.17913143194 Q 157.305978991424, 246.6933651841166, 165.7057764565874, 213.873697851278 " fill="none" id="curve_164" stroke="#000000" stroke-linecap="round" stroke-linejoin="round" stroke-width="3.996074844221385"/>
  <path d="M 165.7057764565874, 213.873697851278 Q 172.2049104516036, 227.9871279668352, 178.8617137015128, 250.40092855911 " fill="none" id="curve_164" stroke="#000000" stroke-linecap="round" stroke-linejoin="round" stroke-width="3.180627062967851"/>
  <path d="M 159.7130281711366, 248.906101421822 Q 169.2871823300508, 255.7408207802922, 173.3665374787366, 279.111345233242 " fill="none" id="curve_164" stroke="#000000" stroke-linecap="round" stroke-linejoin="round" stroke-width="3.7141780177613297"/>
  <path d="M 173.3665374787366, 279.111345233242 Q 165.8714232226318, 283.1550578417854, 147.8673269948966, 285.930963722708 " fill="none" id="curve_164" stroke="#000000" stroke-linecap="round" stroke-linejoin="round" stroke-width="4.110049037049264"/>
  <path d="M 147.8673269948966, 285.930963722708 Q 135.1251338759212, 285.9123195745876, 134.5769156240026, 284.427662782954 " fill="none" id="curve_164" stroke="#000000" stroke-linecap="round" stroke-linejoin="round" stroke-width="4.709674994992471"/>
  <path d="M 134.5769156240026, 284.427662782954 Q 132.9021218686358, 289.750291461396, 130.362398625545, 294.062368159176 " fill="none" id="curve_164" stroke="#000000" stroke-linecap="round" stroke-linejoin="round" stroke-width="3.3224640076596765"/>
  <path d="M 118.01423094703217, 313.103442022418 Q 118.1304016451868, 341.9900658552618, 122.7332838253898, 349.961754764618 " fill="none" id="curve_164" stroke="#000000" stroke-linecap="round" stroke-linejoin="round" stroke-width="3.532131304360377"/>
  <path d="M 122.7332838253898, 349.961754764618 Q 123.9629425582548, 360.25296115036, 129.5662940743874, 364.91028206858 " fill="none" id="curve_164" stroke="#000000" stroke-linecap="round" stroke-linejoin="round" stroke-width="2.838526307175948"/>
  <path d="M 129.5662940743874, 364.91028206858 Q 132.8154950174628, 377.6684246617072, 144.5359431757778, 399.308193832918 " fill="none" id="curve_164" stroke="#000000" stroke-linecap="round" stroke-linejoin="round" stroke-width="3.6328980819074412"/>
  <path d="M 144.5359431757778, 399.308193832918 Q 148.7049905590916, 403.43193567548, 150.828159105502, 436.187896860482 " fill="none" id="curve_164" stroke="#000000" stroke-linecap="round" stroke-linejoin="round" stroke-width="4.589346535365467"/>
  <path d="M 150.828159105502, 436.187896860482 Q 151.099732561184, 456.019439989827, 154.386282606043, 458.38928639671 " fill="none" id="curve_164" stroke="#000000" stroke-linecap="round" stroke-linejoin="round" stroke-width="3.189794141303858"/>
  <path d="M 154.386282606043, 458.38928639671 Q 144.7353494705596, 462.078277017894, 129.9333943671864, 465.6281877708 " fill="none" id="curve_164" stroke="#000000" stroke-linecap="round" stroke-linejoin="round" stroke-width="3.413879398752065"/>
  <path d="M 159.6443428903358, 456.817478087664 Q 176.0982711479528, 453.6860139594246, 200.7070007033722, 445.18696090973 " fill="none" id="curve_164" stroke="#000000" stroke-linecap="round" stroke-linejoin="round" stroke-width="3.2156885028213966"/>
  <path d="M 200.7070007033722, 445.18696090973 Q 209.247504710528, 449.04991138652, 212.1424023918378, 479.573496558088 " fill="none" id="curve_164" stroke="#000000" stroke-linecap="round" stroke-linejoin="round" stroke-width="3.1725008321724495"/>
  <path d="M 212.1424023918378, 479.573496558088 Q 214.0851109525168, 494.4737753190794, 216.3331787208914, 507.100597794044 " fill="none" id="curve_164" stroke="#000000" stroke-linecap="round" stroke-linejoin="round" stroke-width="4.506812744410426"/>
  <path d="M 247.6321463682836, 482.39169652962 Q 255.3452378842734, 489.297577817124, 263.2566152053962, 498.490414919236 " fill="none" id="curve_164" stroke="#000000" stroke-linecap="round" stroke-linejoin="round" stroke-width="2.3767459787208267"/>
  <path d="M 270.875401759628, 478.210815631038 Q 267.107091109294, 480.9297364926542, 265.2475359533586, 487.423498598708 " fill="none" id="curve_164" stroke="#000000" stroke-linecap="round" stroke-linejoin="round" stroke-width="3.201381254926505"/>
  <path d="M 265.2475359533586, 487.423498598708 Q 269.43647375127, 492.4189620146286, 274.1454555576554, 496.92077494394 " fill="none" id="curve_164" stroke="#000000" stroke-linecap="round" stroke-linejoin="round" stroke-width="3.303003779920278"/>
  <path d="M 271.089225572721, 509.281721393944 Q 265.8699403084648, 504.069742556506, 254.2813462430654, 495.82263579402 " fill="none" id="curve_164" stroke="#000000" stroke-linecap="round" stroke-linejoin="round" stroke-width="2.675282214396434"/>
  <path d="M 260.5475114995656, 509.641816282612 Q 254.5176642295826, 504.339508319646, 246.0898565634316, 491.985456673488 " fill="none" id="curve_164" stroke="#000000" stroke-linecap="round" stroke-linejoin="round" stroke-width="2.470121403179434"/>
  <path d="M 208.1345677057256, 509.496507449896 Q 210.9311738415908, 507.672485879804, 215.6693001961846, 506.279894429868 " fill="none" id="curve_164" stroke="#000000" stroke-linecap="round" stroke-linejoin="round" stroke-width="3.6069989279804395"/>
  <path d="M 238.4887414607388, 436.78226354717 Q 224.7551924280372, 437.6209815808218, 205.9216529066578, 443.213251443448 " fill="none" id="curve_164" stroke="#000000" stroke-linecap="round" stroke-linejoin="round" stroke-width="1.5701756458631113"/>
  <path d="M 205.9216529066578, 443.213251443448 Q 202.4938526419972, 443.3659956633138, 184.3512793715016, 443.42904991084 " fill="none" id="curve_164" stroke="#000000" stroke-linecap="round" stroke-linejoin="round" stroke-width="3.840306293533509"/>
  <path d="M 184.3512793715016, 443.42904991084 Q 166.4273787903618, 442.4786787035088, 158.75059615922, 426.0388903039 " fill="none" id="curve_164" stroke="#000000" stroke-linecap="round" stroke-linejoin="round" stroke-width="3.518082147621247"/>
  <path d="M 158.75059615922, 426.0388903039 Q 154.9431000895776, 419.4223129198, 149.1108218367116, 408.319718779864 " fill="none" id="curve_164" stroke="#000000" stroke-linecap="round" stroke-linejoin="round" stroke-width="3.646862363240805"/>
  <path d="M 162.03833305192, 388.158976973834 Q 157.9619235768354, 382.4582265871624, 152.8463421446188, 359.200407275968 " fill="none" id="curve_164" stroke="#000000" stroke-linecap="round" stroke-linejoin="round" stroke-width="5.493892019906646"/>
  <path d="M 152.8463421446188, 359.200407275968 Q 153.274842595958, 351.8696847952824, 171.340806823501, 351.301466502424 " fill="none" id="curve_164" stroke="#000000" stroke-linecap="round" stroke-linejoin="round" stroke-width="3.701482241615208"/>
  <path d="M 171.340806823501, 351.301466502424 Q 183.964287080398, 354.1620666108126, 204.1331904268026, 360.868140911544 " fill="none" id="curve_164" stroke="#000000" stroke-linecap="round" stroke-linejoin="round" stroke-width="4.275921060440593"/>
  <path d="M 204.1331904268026, 360.868140911544 Q 215.8527180898572, 366.614710334448, 230.7643301820516, 374.254132961714 " fill="none" id="curve_164" stroke="#000000" stroke-linecap="round" stroke-linejoin="round" stroke-width="5.544579172708902"/>
  <path d="M 230.7643301820516, 374.254132961714 Q 218.7486195215862, 375.4825626802552, 206.1296345613472, 378.968190994104 " fill="none" id="curve_164" stroke="#000000" stroke-linecap="round" stroke-linejoin="round" stroke-width="3.9083668852953912"/>
  <path d="M 206.1296345613472, 378.968190994104 Q 200.8630789401414, 380.4456051496438, 179.3387290059042, 382.042396133374 " fill="none" id="curve_164" stroke="#000000" stroke-linecap="round" stroke-linejoin="round" stroke-width="4.083063302384842"/>
  <path d="M 179.3387290059042, 382.042396133374 Q 164.700565634332, 379.9670720105156, 155.992066484542, 362.30046040338 " fill="none" id="curve_164" stroke="#000000" stroke-linecap="round" stroke-linejoin="round" stroke-width="4.34297998267484"/>
  <path d="M 155.992066484542, 362.30046040338 Q 170.4849683690956, 362.56013403517, 182.6873293934776, 363.36062866968 " fill="none" id="curve_164" stroke="#000000" stroke-linecap="round" stroke-linejoin="round" stroke-width="3.735807430313294"/>
  <path d="M 182.6873293934776, 363.36062866968 Q 194.5767558643718, 365.66981348894, 213.3319502888632, 370.941429202984 " fill="none" id="curve_164" stroke="#000000" stroke-linecap="round" stroke-linejoin="round" stroke-width="3.9133792900177373"/>
  <path d="M 222.26770411119, 379.46557909768 Q 214.12249760319, 384.3490420698476, 199.9549981175376, 393.51634222788 " fill="none" id="curve_164" stroke="#000000" stroke-linecap="round" stroke-linejoin="round" stroke-width="5.561939492283098"/>
  <path d="M 199.9549981175376, 393.51634222788 Q 196.4427521891426, 395.0593528139622, 186.1867848454428, 395.604194467496 " fill="none" id="curve_164" stroke="#000000" stroke-linecap="round" stroke-linejoin="round" stroke-width="5.239034560789545"/>
  <path d="M 165.0654947506676, 392.187418495 Q 169.6551935451476, 395.506711362834, 181.6438452425892, 396.965728466056 " fill="none" id="curve_164" stroke="#000000" stroke-linecap="round" stroke-linejoin="round" stroke-width="3.117587806476123"/>
  <path d="M 158.3788716770838, 334.9971175503 Q 155.94083922494, 326.4074573837998, 151.140043444348, 315.645452246948 " fill="none" id="curve_164" stroke="#000000" stroke-linecap="round" stroke-linejoin="round" stroke-width="5.738131690218366"/>
  <path d="M 147.7899496516042, 321.088671649798 Q 149.6529033446722, 328.645064068146, 154.6050125031362, 334.1947040201 " fill="none" id="curve_164" stroke="#000000" stroke-linecap="round" stroke-linejoin="round" stroke-width="2.474587132209061"/>
  <path d="M 166.4713901955188, 274.117896067928 Q 159.4107281786682, 270.3006369767522, 153.6851346451972, 258.8921939058 " fill="none" id="curve_164" stroke="#000000" stroke-linecap="round" stroke-linejoin="round" stroke-width="3.2876404796347365"/>
  <path d="M 137.2475831129218, 277.585330417774 Q 134.4386476768934, 276.187225062058, 131.0060824890444, 274.32294237744 " fill="none" id="curve_164" stroke="#000000" stroke-linecap="round" stroke-linejoin="round" stroke-width="3.9753267264231784"/>
  <path d="M 203.996125936113, 210.56770777122 Q 215.329815689672, 219.8848141631452, 238.6075349979006, 226.71867886763 " fill="none" id="curve_164" stroke="#000000" stroke-linecap="round" stroke-linejoin="round" stroke-width="3.7919066587965187"/>
  <path d="M 237.647284838435, 220.679282993962 Q 249.901779471881, 216.3069042929296, 285.2030301918446, 209.812120327632 " fill="none" id="curve_164" stroke="#000000" stroke-linecap="round" stroke-linejoin="round" stroke-width="3.9811533687972838"/>
  <path d="M 285.2030301918446, 209.812120327632 Q 285.7112217309368, 207.24056369394, 321.661740732152, 207.11036701319 " fill="none" id="curve_164" stroke="#000000" stroke-linecap="round" stroke-linejoin="round" stroke-width="3.7075490263827886"/>
  <path d="M 321.661740732152, 207.11036701319 Q 341.962266918808, 207.755874664008, 347.4135707277964, 211.085184418122 " fill="none" id="curve_164" stroke="#000000" stroke-linecap="round" stroke-linejoin="round" stroke-width="3.9776594031757444"/>
  <path d="M 343.91316447471, 236.748461103756 Q 340.4091859500208, 243.7578644446344, 334.6406734066886, 271.8903005897 " fill="none" id="curve_164" stroke="#000000" stroke-linecap="round" stroke-linejoin="round" stroke-width="4.349502118557238"/>
  <path d="M 334.6406734066886, 271.8903005897 Q 327.7055273597102, 280.8100630199248, 311.3077902996316, 289.326648483444 " fill="none" id="curve_164" stroke="#000000" stroke-linecap="round" stroke-linejoin="round" stroke-width="9.01616567883995"/>
  <path d="M 311.3077902996316, 289.326648483444 Q 306.588164708774, 292.100798772632, 300.285071012374, 294.016146140702 " fill="none" id="curve_164" stroke="#000000" stroke-linecap="round" stroke-linejoin="round" stroke-width="7.263898811838783"/>
  <path d="M 262.6163102252282, 293.03643354926 Q 262.5438350554166, 293.493584032404, 262.3223993441994, 294.00581901862 " fill="none" id="curve_164" stroke="#000000" stroke-linecap="round" stroke-linejoin="round" stroke-width="2.5219580736361173"/>
  <path d="M 246.3977914827466, 255.971231993368 Q 276.7074312923806, 258.3360213615364, 294.9746154174718, 267.754473900824 " fill="none" id="curve_164" stroke="#000000" stroke-linecap="round" stroke-linejoin="round" stroke-width="5.058351245613198"/>
  <path d="M 325.3209004959938, 252.440102269282 Q 322.9748799541862, 258.438487976058, 321.895756456048, 282.096436588642 " fill="none" id="curve_164" stroke="#000000" stroke-linecap="round" stroke-linejoin="round" stroke-width="2.8626935709924397"/>
  <path d="M 333.704781832451, 286.244763154798 Q 331.9326486686766, 286.6631370821216, 330.0162048957292, 287.878190417104 " fill="none" id="curve_164" stroke="#000000" stroke-linecap="round" stroke-linejoin="round" stroke-width="3.241658785256995"/>
  <path d="M 337.367079679478, 274.01639738275 Q 335.7433338155744, 275.4056992374938, 335.4047562715144, 287.05941668018 " fill="none" id="curve_164" stroke="#000000" stroke-linecap="round" stroke-linejoin="round" stroke-width="3.2859926246741242"/>
  <path d="M 332.8881153438812, 234.711068916086 Q 327.095990402811, 241.4007965112394, 312.0160662738702, 249.79804939691 " fill="none" id="curve_164" stroke="#000000" stroke-linecap="round" stroke-linejoin="round" stroke-width="2.6122332902884082"/>
  <path d="M 301.4084773105, 258.45223962482 Q 311.35351981108, 256.4970260736618, 325.8393759768818, 253.5246578377 " fill="none" id="curve_164" stroke="#000000" stroke-linecap="round" stroke-linejoin="round" stroke-width="3.28373736645802"/>
  <path d="M 325.8393759768818, 253.5246578377 Q 327.8240002624344, 251.8144138318168, 333.498766635956, 250.963090234922 " fill="none" id="curve_164" stroke="#000000" stroke-linecap="round" stroke-linejoin="round" stroke-width="3.2240517932878228"/>
  <path d="M 318.2147853186472, 263.999070836288 Q 305.2086698871426, 266.2845015451948, 297.4183363638252, 274.937216762858 " fill="none" id="curve_164" stroke="#000000" stroke-linecap="round" stroke-linejoin="round" stroke-width="4.491981520013035"/>
  <path d="M 297.4183363638252, 274.937216762858 Q 292.5468836445228, 272.721435166751, 280.041266880877, 270.777373131192 " fill="none" id="curve_164" stroke="#000000" stroke-linecap="round" stroke-linejoin="round" stroke-width="4.3120462309917365"/>
  <path d="M 273.33166452492, 293.366513069546 Q 264.2822348993874, 292.8393707874022, 255.7671665997152, 291.743019885786 " fill="none" id="curve_164" stroke="#000000" stroke-linecap="round" stroke-linejoin="round" stroke-width="3.0492897770955096"/>
  <path d="M 277.29568909117, 295.2018299768 Q 277.1634636881442, 294.4634894376642, 276.568371368894, 294.18614619452 " fill="none" id="curve_164" stroke="#000000" stroke-linecap="round" stroke-linejoin="round" stroke-width="3.785070653128947"/>
  <path d="M 312.0181981535504, 211.615962048014 Q 299.0403281412166, 214.8850962354014, 267.962157931386, 223.627152758868 " fill="none" id="curve_164" stroke="#000000" stroke-linecap="round" stroke-linejoin="round" stroke-width="3.8652271090477917"/>
  <path d="M 267.962157931386, 223.627152758868 Q 264.061431697569, 227.624850022735, 239.62450950468, 228.66198966423 " fill="none" id="curve_164" stroke="#000000" stroke-linecap="round" stroke-linejoin="round" stroke-width="4.270334475471909"/>
  <path d="M 251.960179539946, 261.996740104 Q 254.1798813365992, 261.55030859198, 262.076730877141, 261.2159571936 " fill="none" id="curve_164" stroke="#000000" stroke-linecap="round" stroke-linejoin="round" stroke-width="3.394485446609774"/>
  <path d="M 407.8526067685432, 300.49826894008 Q 407.4277603376548, 326.1486316847932, 401.7683395530856, 344.353619227784 " fill="none" id="curve_164" stroke="#000000" stroke-linecap="round" stroke-linejoin="round" stroke-width="4.3027492611766185"/>
  <path d="M 401.7683395530856, 344.353619227784 Q 398.9475523455364, 364.0358730592252, 392.0581863508168, 393.438298361912 " fill="none" id="curve_164" stroke="#000000" stroke-linecap="round" stroke-linejoin="round" stroke-width="4.338742892734633"/>
  <path d="M 392.0581863508168, 393.438298361912 Q 387.1646163781924, 410.2364519610176, 377.101689655238, 445.816557449448 " fill="none" id="curve_164" stroke="#000000" stroke-linecap="round" stroke-linejoin="round" stroke-width="3.359436066400921"/>
  <path d="M 377.101689655238, 445.816557449448 Q 370.61124555714, 460.3084970997046, 364.6452639111456, 499.41050917108 " fill="none" id="curve_164" stroke="#000000" stroke-linecap="round" stroke-linejoin="round" stroke-width="3.420095017229923"/>
  <path d="M 364.6452639111456, 499.41050917108 Q 364.329780607656, 505.381903247047, 362.4158341618298, 506.883728913024 " fill="none" id="curve_164" stroke="#000000" stroke-linecap="round" stroke-linejoin="round" stroke-width="5.108367338227062"/>
  <path d="M 384.2935335792582, 436.85709216548 Q 403.0631973290326, 430.22424041644, 418.695846104632, 414.67808454555 " fill="none" id="curve_164" stroke="#000000" stroke-linecap="round" stroke-linejoin="round" stroke-width="4.1446740921599785"/>
  <path d="M 395.8000286519052, 372.06167237966 Q 411.07001009141, 377.0828211538036, 425.4576150096182, 396.66047261742 " fill="none" id="curve_164" stroke="#000000" stroke-linecap="round" stroke-linejoin="round" stroke-width="2.8719133581215344"/>
  <path d="M 425.4576150096182, 396.66047261742 Q 434.93809026178, 398.652493506824, 441.489295875782, 403.962300487928 " fill="none" id="curve_164" stroke="#000000" stroke-linecap="round" stroke-linejoin="round" stroke-width="3.461250880053929"/>
  <path d="M 478.31309075899, 412.9368499598 Q 481.6593349455526, 414.93097505927, 505.659718642856, 415.40211334484 " fill="none" id="curve_164" stroke="#000000" stroke-linecap="round" stroke-linejoin="round" stroke-width="3.778707284428784"/>
  <path d="M 474.5280993047632, 437.16904707727 Q 463.1983775551026, 431.2595325726824, 440.6347139095412, 419.92207363296 " fill="none" id="curve_164" stroke="#000000" stroke-linecap="round" stroke-linejoin="round" stroke-width="3.216031418787406"/>
  <path d="M 434.9300923202308, 437.013864559094 Q 426.64276386936, 445.1932085780564, 413.4061961558722, 464.57985619978 " fill="none" id="curve_164" stroke="#000000" stroke-linecap="round" stroke-linejoin="round" stroke-width="3.3930828310524785"/>
  <path d="M 434.8311808895322, 434.788174087034 Q 437.5990379475162, 430.5737257100568, 442.0313208889218, 426.35488455914 " fill="none" id="curve_164" stroke="#000000" stroke-linecap="round" stroke-linejoin="round" stroke-width="2.9784030224903524"/>
  <path d="M 426.7113097500058, 409.263062888608 Q 425.2245301982332, 411.0366719685566, 421.9928205799314, 412.89651935719 " fill="none" id="curve_164" stroke="#000000" stroke-linecap="round" stroke-linejoin="round" stroke-width="3.146028805928058"/>
  <path d="M 421.9928205799314, 412.89651935719 Q 409.693843514278, 408.679825878434, 395.405699334762, 391.96926095306 " fill="none" id="curve_164" stroke="#000000" stroke-linecap="round" stroke-linejoin="round" stroke-width="3.1722829220955027"/>
  <path d="M 402.6979372387868, 371.534527303662 Q 401.329070276226, 369.243842920275, 399.3859077088382, 365.915310163112 " fill="none" id="curve_164" stroke="#000000" stroke-linecap="round" stroke-linejoin="round" stroke-width="2.6196435573727785"/>
  <path d="M 432.6533954677958, 329.10999166458 Q 428.7732456823578, 321.4888686807458, 411.293520742454, 305.1895128436 " fill="none" id="curve_164" stroke="#000000" stroke-linecap="round" stroke-linejoin="round" stroke-width="3.808891916849527"/>
  <path d="M 411.293520742454, 305.1895128436 Q 411.3235818084528, 299.6062218191414, 411.4257355270762, 296.73567068071 " fill="none" id="curve_164" stroke="#000000" stroke-linecap="round" stroke-linejoin="round" stroke-width="4.149739713553923"/>
  <path d="M 411.4257355270762, 296.73567068071 Q 412.3375769991924, 285.132375210792, 415.3014922909294, 264.686383087504 " fill="none" id="curve_164" stroke="#000000" stroke-linecap="round" stroke-linejoin="round" stroke-width="3.791080203025439"/>
  <path d="M 415.3014922909294, 264.686383087504 Q 415.8007569529828, 250.3024793274324, 418.1158931086238, 240.24186950689 " fill="none" id="curve_164" stroke="#000000" stroke-linecap="round" stroke-linejoin="round" stroke-width="3.419669952841553"/>
  <path d="M 418.1158931086238, 240.24186950689 Q 419.418701954062, 243.0298892561534, 421.922089193218, 247.145838211448 " fill="none" id="curve_164" stroke="#000000" stroke-linecap="round" stroke-linejoin="round" stroke-width="2.57236339753582"/>
  <path d="M 421.922089193218, 247.145838211448 Q 437.6754348241324, 254.01824959026, 463.1724326370732, 274.65735720986 " fill="none" id="curve_164" stroke="#000000" stroke-linecap="round" stroke-linejoin="round" stroke-width="2.9828723979032126"/>
  <path d="M 463.1724326370732, 274.65735720986 Q 475.3168651214, 282.108171433234, 497.34937985088, 300.337369758 " fill="none" id="curve_164" stroke="#000000" stroke-linecap="round" stroke-linejoin="round" stroke-width="3.0541606179027316"/>
  <path d="M 497.34937985088, 300.337369758 Q 504.5512261967586, 304.256171777824, 509.0617069877514, 310.110753431118 " fill="none" id="curve_164" stroke="#000000" stroke-linecap="round" stroke-linejoin="round" stroke-width="3.6300877668812777"/>
  <path d="M 509.0617069877514, 310.110753431118 Q 508.9996960424818, 310.1702778163104, 508.9343161826564, 310.269199861468 " fill="none" id="curve_164" stroke="#000000" stroke-linecap="round" stroke-linejoin="round" stroke-width="2.9036829561564144"/>
  <path d="M 471.262488842236, 349.707028966126 Q 482.7030252807822, 358.0754056266352, 501.54410881055, 377.867159788728 " fill="none" id="curve_164" stroke="#000000" stroke-linecap="round" stroke-linejoin="round" stroke-width="4.328636748439721"/>
  <path d="M 507.165151354066, 374.752683893066 Q 503.3428063764694, 367.1565899635566, 491.0346340104318, 359.921163347108 " fill="none" id="curve_164" stroke="#000000" stroke-linecap="round" stroke-linejoin="round" stroke-width="2.881176271589436"/>
  <path d="M 469.68225267694, 345.541365256582 Q 462.1726722891294, 338.40503349031, 445.074299735104, 321.95863206688 " fill="none" id="curve_164" stroke="#000000" stroke-linecap="round" stroke-linejoin="round" stroke-width="4.276497540006553"/>
  <path d="M 445.074299735104, 321.95863206688 Q 446.8900516833692, 327.3852711973604, 451.9936970802676, 337.499192079344 " fill="none" id="curve_164" stroke="#000000" stroke-linecap="round" stroke-linejoin="round" stroke-width="2.694878695392846"/>
  <path d="M 451.9936970802676, 337.499192079344 Q 457.927275823943, 343.419530086411, 461.5285531944078, 352.959281103814 " fill="none" id="curve_164" stroke="#000000" stroke-linecap="round" stroke-linejoin="round" stroke-width="4.071739232355653"/>
  <path d="M 473.008332970951, 410.276720242412 Q 463.7391311155648, 406.697929696808, 448.04161787689, 399.610052035664 " fill="none" id="curve_164" stroke="#000000" stroke-linecap="round" stroke-linejoin="round" stroke-width="3.05232658842272"/>
  <path d="M 451.1975753704764, 411.287693872154 Q 446.5810318745416, 408.049825738626, 440.2768972317434, 402.908659829796 " fill="none" id="curve_164" stroke="#000000" stroke-linecap="round" stroke-linejoin="round" stroke-width="2.648481690740011"/>
  <path d="M 428.43914298217, 411.32007397622 Q 436.71464501328, 415.5789589544884, 447.495669166252, 419.570731057824 " fill="none" id="curve_164" stroke="#000000" stroke-linecap="round" stroke-linejoin="round" stroke-width="2.5125535137682076"/>
  <path d="M 476.9604760318758, 434.838582542126 Q 477.1144044975806, 438.012601528894, 479.7552632003786, 438.31395151872 " fill="none" id="curve_164" stroke="#000000" stroke-linecap="round" stroke-linejoin="round" stroke-width="3.555733899036086"/>
  <path d="M 506.3293737750288, 414.418912019482 Q 507.697273411316, 414.6387369755024, 508.6511196312448, 415.153703732774 " fill="none" id="curve_164" stroke="#000000" stroke-linecap="round" stroke-linejoin="round" stroke-width="4.7658518171504864"/>
  <path d="M 466.456504087788, 386.695138125184 Q 452.7549057059474, 383.077997116738, 439.604015532028, 368.70731066086 " fill="none" id="curve_164" stroke="#000000" stroke-linecap="round" stroke-linejoin="round" stroke-width="3.5532508150807245"/>
  <path d="M 434.89812189857, 320.165577344232 Q 435.1108293802642, 318.6887174500512, 435.793481475197, 318.037089475134 " fill="none" id="curve_164" stroke="#000000" stroke-linecap="round" stroke-linejoin="round" stroke-width="5.222944399038155"/>
  <path d="M 418.44079823167, 235.1146147367 Q 419.128950148439, 232.6804622737928, 419.3204883738452, 204.123599661228 " fill="none" id="curve_164" stroke="#000000" stroke-linecap="round" stroke-linejoin="round" stroke-width="2.948684569926641"/>
  <path d="M 419.3204883738452, 204.123599661228 Q 419.2562932545564, 197.8085954348454, 419.2120917312898, 175.901043100922 " fill="none" id="curve_164" stroke="#000000" stroke-linecap="round" stroke-linejoin="round" stroke-width="3.436985237348745"/>
  <path d="M 419.2120917312898, 175.901043100922 Q 419.2461102042818, 164.4753869383216, 419.434295608512, 159.994545202748 " fill="none" id="curve_164" stroke="#000000" stroke-linecap="round" stroke-linejoin="round" stroke-width="3.31138035233094"/>
  <path d="M 419.434295608512, 159.994545202748 Q 418.7150201358228, 145.9281503324738, 415.446009522024, 119.080327757244 " fill="none" id="curve_164" stroke="#000000" stroke-linecap="round" stroke-linejoin="round" stroke-width="3.440680682191605"/>
  <path d="M 415.446009522024, 119.080327757244 Q 413.4230236907808, 112.0558702732056, 406.9401664646012, 85.5805821324716 " fill="none" id="curve_164" stroke="#000000" stroke-linecap="round" stroke-linejoin="round" stroke-width="1.797196574882613"/>
  <path d="M 406.9401664646012, 85.5805821324716 Q 403.518533589597, 77.0283510070874, 391.183661452089, 65.9386467839608 " fill="none" id="curve_164" stroke="#000000" stroke-linecap="round" stroke-linejoin="round" stroke-width="3.364064607275538"/>
  <path d="M 391.183661452089, 65.9386467839608 Q 368.5987741353224, 66.033866842676, 365.6934723972624, 68.5052652402 " fill="none" id="curve_164" stroke="#000000" stroke-linecap="round" stroke-linejoin="round" stroke-width="2.8826058907882217"/>
  <path d="M 365.6934723972624, 68.5052652402 Q 356.290323464524, 70.8649028636656, 333.5380183877452, 77.8663601849394 " fill="none" id="curve_164" stroke="#000000" stroke-linecap="round" stroke-linejoin="round" stroke-width="3.364192045336694"/>
  <path d="M 333.5380183877452, 77.8663601849394 Q 330.60449817095, 78.773971906257, 320.176367288776, 79.174513074442 " fill="none" id="curve_164" stroke="#000000" stroke-linecap="round" stroke-linejoin="round" stroke-width="2.844135693451558"/>
  <path d="M 326.9336183019018, 60.8852784020394 Q 314.293957317822, 62.81302874286472, 302.07423185781, 76.485634504028 " fill="none" id="curve_164" stroke="#000000" stroke-linecap="round" stroke-linejoin="round" stroke-width="3.731940453311047"/>
  <path d="M 309.9986770100926, 90.923626599976 Q 305.8776342804396, 91.26054284234, 303.615243668112, 92.50776296682 " fill="none" id="curve_164" stroke="#000000" stroke-linecap="round" stroke-linejoin="round" stroke-width="3.5472459103687703"/>
  <path d="M 332.6627220230384, 96.114314713302 Q 346.7897306675222, 100.5974546742668, 353.5128431555014, 129.497146302912 " fill="none" id="curve_164" stroke="#000000" stroke-linecap="round" stroke-linejoin="round" stroke-width="2.7921770957565526"/>
  <path d="M 276.7395731329792, 61.7260197512132 Q 282.607533918727, 67.9739477934254, 294.17178722607, 72.105421910732 " fill="none" id="curve_164" stroke="#000000" stroke-linecap="round" stroke-linejoin="round" stroke-width="3.8727284535201028"/>
  <path d="M 287.088308743705, 62.09456271159 Q 279.6214576238628, 54.0035994178818, 252.1939689736232, 45.5886935506918 " fill="none" id="curve_164" stroke="#000000" stroke-linecap="round" stroke-linejoin="round" stroke-width="4.68013098023609"/>
  <path d="M 252.1939689736232, 45.5886935506918 Q 242.341889793574, 53.15682446283282, 225.2945258953856, 80.633917534764 " fill="none" id="curve_164" stroke="#000000" stroke-linecap="round" stroke-linejoin="round" stroke-width="3.754769199321208"/>
  <path d="M 225.2945258953856, 80.633917534764 Q 220.9307930662416, 86.40513982296613, 217.73645689891, 96.9053507861948 " fill="none" id="curve_164" stroke="#000000" stroke-linecap="round" stroke-linejoin="round" stroke-width="3.583994433530745"/>
  <path d="M 240.3713436941628, 71.98481935622 Q 260.7660936873478, 73.40450567433707, 280.0888932018376, 84.050493350106 " fill="none" id="curve_164" stroke="#000000" stroke-linecap="round" stroke-linejoin="round" stroke-width="3.414394614652493"/>
  <path d="M 278.2241014333544, 79.8021835100566 Q 287.7720465357046, 80.176198206501, 290.748124219274, 86.980075567628 " fill="none" id="curve_164" stroke="#000000" stroke-linecap="round" stroke-linejoin="round" stroke-width="2.4757295751270245"/>
  <path d="M 286.2690515395416, 92.65852520695 Q 280.41083543235, 89.477746174625, 270.7176938920636, 84.8861537174642 " fill="none" id="curve_164" stroke="#000000" stroke-linecap="round" stroke-linejoin="round" stroke-width="3.191656937716014"/>
  <path d="M 251.770683322427, 34.394612480366 Q 252.6966267758696, 31.13144042797448, 283.873978264066, 30.760898173024 " fill="none" id="curve_164" stroke="#000000" stroke-linecap="round" stroke-linejoin="round" stroke-width="3.1171337225962086"/>
  <path d="M 283.873978264066, 30.760898173024 Q 284.091390566103, 28.59627792392424, 310.8143503150164, 28.5301498590554 " fill="none" id="curve_164" stroke="#000000" stroke-linecap="round" stroke-linejoin="round" stroke-width="4.482911089338238"/>
  <path d="M 310.8143503150164, 28.5301498590554 Q 325.73771207529, 29.61079208103114, 341.35241527168, 33.3287820039834 " fill="none" id="curve_164" stroke="#000000" stroke-linecap="round" stroke-linejoin="round" stroke-width="3.49160935505327"/>
  <path d="M 341.35241527168, 33.3287820039834 Q 348.932935383068, 36.6253349105874, 361.8004114112078, 38.700507563218 " fill="none" id="curve_164" stroke="#000000" stroke-linecap="round" stroke-linejoin="round" stroke-width="4.092684711318419"/>
  <path d="M 361.8004114112078, 38.700507563218 Q 366.2674931133542, 34.61899374000944, 387.989723392409, 32.358882826432 " fill="none" id="curve_164" stroke="#000000" stroke-linecap="round" stroke-linejoin="round" stroke-width="3.7910843470010414"/>
  <path d="M 387.989723392409, 32.358882826432 Q 410.2446873140956, 32.92255390430654, 419.221106379289, 41.5323726720228 " fill="none" id="curve_164" stroke="#000000" stroke-linecap="round" stroke-linejoin="round" stroke-width="3.8628594836845003"/>
  <path d="M 419.221106379289, 41.5323726720228 Q 428.616194230122, 45.95108406183808, 445.096487849014, 56.3737413472546 " fill="none" id="curve_164" stroke="#000000" stroke-linecap="round" stroke-linejoin="round" stroke-width="3.4838001412081434"/>
  <path d="M 445.096487849014, 56.3737413472546 Q 457.44336150976, 59.54945278848442, 472.6345850929462, 71.213907000514 " fill="none" id="curve_164" stroke="#000000" stroke-linecap="round" stroke-linejoin="round" stroke-width="2.72919062010386"/>
  <path d="M 472.6345850929462, 71.213907000514 Q 479.8387723346658, 85.1444959749404, 498.978487331872, 106.7484096356376 " fill="none" id="curve_164" stroke="#000000" stroke-linecap="round" stroke-linejoin="round" stroke-width="3.638653972817875"/>
  <path d="M 498.978487331872, 106.7484096356376 Q 503.143780436064, 115.6755133677618, 507.6848778671406, 125.3520987088 " fill="none" id="curve_164" stroke="#000000" stroke-linecap="round" stroke-linejoin="round" stroke-width="3.250331919576338"/>
  <path d="M 353.878358726316, 218.596919026634 Q 353.397070108472, 222.9576624681784, 352.002216593066, 226.929901320046 " fill="none" id="curve_164" stroke="#000000" stroke-linecap="round" stroke-linejoin="round" stroke-width="3.2355831997574493"/>
  <path d="M 285.2645204127498, 416.98119457624 Q 277.8778520506016, 426.925174695824, 243.7659743343466, 433.88572369397 " fill="none" id="curve_164" stroke="#000000" stroke-linecap="round" stroke-linejoin="round" stroke-width="4.231143376129655"/>
  <path d="M 256.4737173911052, 368.773513214034 Q 258.2576448793996, 368.26305433048, 259.5094232559748, 366.95246061354 " fill="none" id="curve_164" stroke="#000000" stroke-linecap="round" stroke-linejoin="round" stroke-width="5.700402587893219"/>
  <path d="M 86.4666481018066, 70.4814796447752 Q 78.583720077874, 77.6808329927483, 49.5592593675984, 96.419245206376 " fill="none" id="curve_164" stroke="#000000" stroke-linecap="round" stroke-linejoin="round" stroke-width="4.715753907037786"/>
  <path d="M 49.5592593675984, 96.419245206376 Q 40.5711126796175, 104.8459324964414, 23.16749912723434, 128.964906897918 " fill="none" id="curve_164" stroke="#000000" stroke-linecap="round" stroke-linejoin="round" stroke-width="3.712522558014507"/>
  <path d="M 23.16749912723434, 128.964906897918 Q 16.5748274453502, 137.3678366470192, 4.96182098994618, 171.67756652825 " fill="none" id="curve_164" stroke="#000000" stroke-linecap="round" stroke-linejoin="round" stroke-width="3.4010851982313746"/>
  <path d="M 4.96182098994618, 171.67756652825 Q 4.525937326081636, 176.9424656742092, 3.428006061570606, 180.241104440098 " fill="none" id="curve_164" stroke="#000000" stroke-linecap="round" stroke-linejoin="round" stroke-width="3.5637962511470365"/>
  <path d="M 26.2207818473064, 116.4370149922774 Q 19.65940760701666, 119.4983503459652, 13.82958814774806, 126.2206631409488 " fill="none" id="curve_164" stroke="#000000" stroke-linecap="round" stroke-linejoin="round" stroke-width="3.0311543456642243"/>
  <path d="M 166.5971663076228, 209.21984885268 Q 168.389543919274, 209.2373875175824, 168.9182994624556, 209.39610347124 " fill="none" id="curve_164" stroke="#000000" stroke-linecap="round" stroke-linejoin="round" stroke-width="6.211497802359536"/>
  <path d="M 122.3256187438964, 55.533473968504 Q 115.5385264009848, 59.6018957570724, 91.97700309633181, 70.443285926074 " fill="none" id="curve_164" stroke="#000000" stroke-linecap="round" stroke-linejoin="round" stroke-width="4.215697806994737"/>
  <path d="M 119.7386281825232, 55.5157968969128 Q 126.43717827384326, 45.68450684777672, 149.8371566386392, 32.391451640095 " fill="none" id="curve_164" stroke="#000000" stroke-linecap="round" stroke-linejoin="round" stroke-width="2.7538412842512896"/>
  <path d="M 149.8371566386392, 32.391451640095 Q 157.4727035068804, 25.99880267396512, 178.994272921308, 13.5790457038872 " fill="none" id="curve_164" stroke="#000000" stroke-linecap="round" stroke-linejoin="round" stroke-width="3.24730131149742"/>
  <path d="M 178.994272921308, 13.5790457038872 Q 184.133491263273, 7.263702722455, 199.091464732093, 3.48962179382922 " fill="none" id="curve_164" stroke="#000000" stroke-linecap="round" stroke-linejoin="round" stroke-width="3.6597465995898704"/>
  <path d="M 199.091464732093, 3.48962179382922 Q 214.8939597419972, 8.0210209435696, 232.2383343360624, 17.9784673837196 " fill="none" id="curve_164" stroke="#000000" stroke-linecap="round" stroke-linejoin="round" stroke-width="3.2840207176811553"/>
  <path d="M 232.2383343360624, 17.9784673837196 Q 233.9021493877564, 17.7546307997268, 249.906219038794, 17.716176920848 " fill="none" id="curve_164" stroke="#000000" stroke-linecap="round" stroke-linejoin="round" stroke-width="4.242087371900741"/>
  <path d="M 249.906219038794, 17.716176920848 Q 269.0751012587798, 19.49561626784882, 279.11738763306, 29.186638439202 " fill="none" id="curve_164" stroke="#000000" stroke-linecap="round" stroke-linejoin="round" stroke-width="3.6959949758125914"/>
  <path d="M 255.215078215336, 36.747276866938 Q 268.2288886475106, 42.111562933511, 279.490260939334, 54.33693178942 " fill="none" id="curve_164" stroke="#000000" stroke-linecap="round" stroke-linejoin="round" stroke-width="3.1078950468316138"/>
  <path d="M 272.86946963183, 63.821650395912 Q 270.2712187982, 62.3763514182758, 265.0947027098344, 60.737318168206 " fill="none" id="curve_164" stroke="#000000" stroke-linecap="round" stroke-linejoin="round" stroke-width="2.2553644984601493"/>
  <path d="M 256.3726411106898, 48.5499654682416 Q 255.9337677452556, 50.3412497378409, 249.0611381771876, 50.534982648684 " fill="none" id="curve_164" stroke="#000000" stroke-linecap="round" stroke-linejoin="round" stroke-width="3.5637214959385886"/>
  <path d="M 250.06295550999, 32.94565497909 Q 243.0486916265718, 30.0918533403121, 218.5963852148052, 25.407108505863 " fill="none" id="curve_164" stroke="#000000" stroke-linecap="round" stroke-linejoin="round" stroke-width="4.555330845819362"/>
  <path d="M 218.5963852148052, 25.407108505863 Q 194.6870577554512, 25.44276335240366, 192.657950613975, 26.6844127975882 " fill="none" id="curve_164" stroke="#000000" stroke-linecap="round" stroke-linejoin="round" stroke-width="3.708094286631389"/>
  <path d="M 192.657950613975, 26.6844127975882 Q 181.6468500998872, 28.37645304255462, 163.899619315147, 37.5407713257254 " fill="none" id="curve_164" stroke="#000000" stroke-linecap="round" stroke-linejoin="round" stroke-width="3.642174422022808"/>
  <path d="M 163.899619315147, 37.5407713257254 Q 155.0219257130622, 40.7394299147656, 136.234914038656, 51.177584489482 " fill="none" id="curve_164" stroke="#000000" stroke-linecap="round" stroke-linejoin="round" stroke-width="3.7742451012852682"/>
  <path d="M 136.234914038656, 51.177584489482 Q 129.2167880910058, 54.4648176446, 120.58423158931696, 58.8827646576346 " fill="none" id="curve_164" stroke="#000000" stroke-linecap="round" stroke-linejoin="round" stroke-width="3.7031909069383"/>
  <path d="M 90.64605037110964, 71.19943980914 Q 86.3483987859037, 72.9358009626098, 82.6980492439078, 75.7486609598948 " fill="none" id="curve_164" stroke="#000000" stroke-linecap="round" stroke-linejoin="round" stroke-width="3.275780472748465"/>
  <path d="M 242.0345462227024, 243.333973315452 Q 241.329491327721, 243.6321057941776, 240.6735253579574, 244.193064071354 " fill="none" id="curve_164" stroke="#000000" stroke-linecap="round" stroke-linejoin="round" stroke-width="5.474803752118211"/>
</svg>
